<svg xmlns="http://www.w3.org/2000/svg" viewBox="0 0 1840 640" role="img" aria-labelledby="title desc">
  <title id="title">ZeroRAM Suspender lockup</title>
  <desc id="desc">Horizontal brand lockup for ZeroRAM Suspender.</desc>
  <defs>
    <linearGradient id="badge" x1="56" y1="56" x2="584" y2="584" gradientUnits="userSpaceOnUse">
      <stop offset="0" stop-color="#F0FDFA"/>
      <stop offset="0.5" stop-color="#E0F2FE"/>
      <stop offset="1" stop-color="#DBEAFE"/>
    </linearGradient>
    <linearGradient id="zeroFill" x1="212" y1="221" x2="434" y2="425" gradientUnits="userSpaceOnUse">
      <stop offset="0" stop-color="#0D9488"/>
      <stop offset="0.55" stop-color="#0891B2"/>
      <stop offset="1" stop-color="#2563EB"/>
    </linearGradient>
  </defs>

  <g transform="translate(48 48) scale(0.53125)">
    <rect width="1024" height="1024" rx="232" fill="url(#badge)"/>
    <path fill="#67E8F9" opacity="0.28" d="M240 274h544c43.1 0 78 34.9 78 78v372c0 43.1-34.9 78-78 78H240c-43.1 0-78-34.9-78-78V352c0-43.1 34.9-78 78-78Z"/>
    <path fill="#FFFFFF" stroke="#7DD3FC" stroke-width="18" d="M202 220h620c45.3 0 82 36.7 82 82v458c0 45.3-36.7 82-82 82H202c-45.3 0-82-36.7-82-82V302c0-45.3 36.7-82 82-82Z"/>
    <path fill="#CFFAFE" d="M202 220h620c45.3 0 82 36.7 82 82v84H120v-84c0-45.3 36.7-82 82-82Z" opacity="0.82"/>
    <circle cx="220" cy="302" r="22" fill="#0D9488" opacity="0.34"/>
    <circle cx="290" cy="302" r="22" fill="#0891B2" opacity="0.28"/>
    <circle cx="360" cy="302" r="22" fill="#2563EB" opacity="0.22"/>
    <ellipse cx="512" cy="568" rx="220" ry="182" fill="url(#zeroFill)"/>
    <ellipse cx="512" cy="568" rx="116" ry="92" fill="#FFFFFF"/>
    <path d="M376 459h281L392 682h286" fill="none" stroke="#FFFFFF" stroke-width="78" stroke-linecap="round" stroke-linejoin="round"/>
    <path d="M402 466h229L420 672h232" fill="none" stroke="#22D3EE" stroke-width="24" stroke-linecap="round" stroke-linejoin="round"/>
  </g>

  <text x="668" y="286" fill="#0F172A" font-family="Inter, Segoe UI, Arial, sans-serif" font-size="116" font-weight="800" letter-spacing="0">ZeroRAM</text>
  <text x="672" y="390" fill="#0F766E" font-family="Inter, Segoe UI, Arial, sans-serif" font-size="72" font-weight="650" letter-spacing="0">Suspender</text>
  <text x="676" y="472" fill="#475569" font-family="Inter, Segoe UI, Arial, sans-serif" font-size="34" font-weight="500" letter-spacing="0">near-zero memory tab suspension</text>
</svg>
