<svg xmlns="http://www.w3.org/2000/svg" viewBox="0 0 1024 1024" role="img" aria-labelledby="title desc">
  <title id="title">ZeroRAM Suspender monochrome brand mark</title>
  <desc id="desc">A monochrome mark combining a browser tab, a zero, and a Z-shaped suspension stroke.</desc>
  <rect x="64" y="64" width="896" height="896" rx="220" fill="#0F172A"/>
  <path fill="#FFFFFF" opacity="0.28" d="M238 274h548c43.1 0 78 34.9 78 78v374c0 43.1-34.9 78-78 78H238c-43.1 0-78-34.9-78-78V352c0-43.1 34.9-78 78-78Z"/>
  <path fill="#FFFFFF" d="M202 220h620c45.3 0 82 36.7 82 82v458c0 45.3-36.7 82-82 82H202c-45.3 0-82-36.7-82-82V302c0-45.3 36.7-82 82-82Z"/>
  <path fill="#0F172A" opacity="0.1" d="M202 220h620c45.3 0 82 36.7 82 82v84H120v-84c0-45.3 36.7-82 82-82Z"/>
  <circle cx="220" cy="302" r="22" fill="#0F172A" opacity="0.28"/>
  <circle cx="290" cy="302" r="22" fill="#0F172A" opacity="0.22"/>
  <circle cx="360" cy="302" r="22" fill="#0F172A" opacity="0.16"/>
  <ellipse cx="512" cy="568" rx="220" ry="182" fill="#0F172A"/>
  <ellipse cx="512" cy="568" rx="116" ry="92" fill="#FFFFFF"/>
  <path d="M376 459h281L392 682h286" fill="none" stroke="#FFFFFF" stroke-width="78" stroke-linecap="round" stroke-linejoin="round"/>
</svg>
