<svg xmlns="http://www.w3.org/2000/svg" xmlns:xlink="http://www.w3.org/1999/xlink" viewBox="0 0 1600 1000" role="img" aria-labelledby="title desc">
  <title id="title">ZeroRAM Suspender brand preview</title>
  <desc id="desc">Preview board for the ZeroRAM Suspender symbol, brand mark, monochrome mark, lockup, and palette.</desc>
  <defs>
    <linearGradient id="board" x1="0" y1="0" x2="1600" y2="1000" gradientUnits="userSpaceOnUse">
      <stop offset="0" stop-color="#F8FAFC"/>
      <stop offset="1" stop-color="#ECFEFF"/>
    </linearGradient>
    <linearGradient id="badge" x1="122" y1="98" x2="894" y2="926" gradientUnits="userSpaceOnUse">
      <stop offset="0" stop-color="#F0FDFA"/>
      <stop offset="0.46" stop-color="#E0F2FE"/>
      <stop offset="1" stop-color="#DBEAFE"/>
    </linearGradient>
    <linearGradient id="zeroFill" x1="323" y1="344" x2="704" y2="690" gradientUnits="userSpaceOnUse">
      <stop offset="0" stop-color="#0D9488"/>
      <stop offset="0.55" stop-color="#0891B2"/>
      <stop offset="1" stop-color="#2563EB"/>
    </linearGradient>
    <g id="mark">
      <rect width="1024" height="1024" rx="232" fill="url(#badge)"/>
      <path fill="#67E8F9" opacity="0.28" d="M240 274h544c43.1 0 78 34.9 78 78v372c0 43.1-34.9 78-78 78H240c-43.1 0-78-34.9-78-78V352c0-43.1 34.9-78 78-78Z"/>
      <path fill="#FFFFFF" stroke="#7DD3FC" stroke-width="18" d="M202 220h620c45.3 0 82 36.7 82 82v458c0 45.3-36.7 82-82 82H202c-45.3 0-82-36.7-82-82V302c0-45.3 36.7-82 82-82Z"/>
      <path fill="#CFFAFE" d="M202 220h620c45.3 0 82 36.7 82 82v84H120v-84c0-45.3 36.7-82 82-82Z" opacity="0.82"/>
      <circle cx="220" cy="302" r="22" fill="#0D9488" opacity="0.34"/>
      <circle cx="290" cy="302" r="22" fill="#0891B2" opacity="0.28"/>
      <circle cx="360" cy="302" r="22" fill="#2563EB" opacity="0.22"/>
      <ellipse cx="512" cy="568" rx="220" ry="182" fill="url(#zeroFill)"/>
      <ellipse cx="512" cy="568" rx="116" ry="92" fill="#FFFFFF"/>
      <path d="M376 459h281L392 682h286" fill="none" stroke="#FFFFFF" stroke-width="78" stroke-linecap="round" stroke-linejoin="round"/>
      <path d="M402 466h229L420 672h232" fill="none" stroke="#22D3EE" stroke-width="24" stroke-linecap="round" stroke-linejoin="round"/>
    </g>
  </defs>

  <rect width="1600" height="1000" fill="url(#board)"/>
  <text x="96" y="118" fill="#0F172A" font-family="Inter, Segoe UI, Arial, sans-serif" font-size="64" font-weight="800">ZeroRAM Suspender</text>
  <text x="100" y="172" fill="#475569" font-family="Inter, Segoe UI, Arial, sans-serif" font-size="28" font-weight="500">Brand mark concept: zero memory, suspended tab, native discarding.</text>

  <rect x="96" y="232" width="460" height="520" rx="36" fill="#FFFFFF"/>
  <g transform="translate(156 282) scale(0.33203125)">
    <use xlink:href="#mark"/>
  </g>
  <text x="152" y="672" fill="#0F172A" font-family="Inter, Segoe UI, Arial, sans-serif" font-size="34" font-weight="750">App brand mark</text>
  <text x="152" y="714" fill="#64748B" font-family="Inter, Segoe UI, Arial, sans-serif" font-size="22">Use for store, README, and hero visuals.</text>

  <rect x="612" y="232" width="892" height="244" rx="36" fill="#FFFFFF"/>
  <g transform="translate(660 282) scale(0.142578125)">
    <use xlink:href="#mark"/>
  </g>
  <text x="850" y="350" fill="#0F172A" font-family="Inter, Segoe UI, Arial, sans-serif" font-size="70" font-weight="800">ZeroRAM</text>
  <text x="854" y="414" fill="#0F766E" font-family="Inter, Segoe UI, Arial, sans-serif" font-size="44" font-weight="650">Suspender</text>

  <rect x="612" y="528" width="420" height="224" rx="36" fill="#0F172A"/>
  <g transform="translate(662 568) scale(0.125)">
    <rect x="64" y="64" width="896" height="896" rx="220" fill="#FFFFFF"/>
    <path fill="#0F172A" opacity="0.22" d="M238 274h548c43.1 0 78 34.9 78 78v374c0 43.1-34.9 78-78 78H238c-43.1 0-78-34.9-78-78V352c0-43.1 34.9-78 78-78Z"/>
    <path fill="#0F172A" d="M202 220h620c45.3 0 82 36.7 82 82v458c0 45.3-36.7 82-82 82H202c-45.3 0-82-36.7-82-82V302c0-45.3 36.7-82 82-82Z"/>
    <ellipse cx="512" cy="568" rx="220" ry="182" fill="#FFFFFF"/>
    <ellipse cx="512" cy="568" rx="116" ry="92" fill="#0F172A"/>
    <path d="M376 459h281L392 682h286" fill="none" stroke="#0F172A" stroke-width="78" stroke-linecap="round" stroke-linejoin="round"/>
  </g>
  <text x="820" y="628" fill="#FFFFFF" font-family="Inter, Segoe UI, Arial, sans-serif" font-size="32" font-weight="750">Mono fallback</text>
  <text x="820" y="670" fill="#CBD5E1" font-family="Inter, Segoe UI, Arial, sans-serif" font-size="20">Small / mono use.</text>

  <rect x="1084" y="528" width="420" height="224" rx="36" fill="#FFFFFF"/>
  <text x="1132" y="604" fill="#0F172A" font-family="Inter, Segoe UI, Arial, sans-serif" font-size="30" font-weight="750">Palette</text>
  <rect x="1132" y="642" width="56" height="56" rx="14" fill="#0D9488"/>
  <rect x="1206" y="642" width="56" height="56" rx="14" fill="#22D3EE"/>
  <rect x="1280" y="642" width="56" height="56" rx="14" fill="#7DD3FC"/>
  <rect x="1354" y="642" width="56" height="56" rx="14" fill="#2563EB"/>
  <text x="1132" y="728" fill="#64748B" font-family="Inter, Segoe UI, Arial, sans-serif" font-size="20">teal / cyan / sky / blue</text>

  <text x="100" y="874" fill="#334155" font-family="Inter, Segoe UI, Arial, sans-serif" font-size="26" font-weight="650">Recommended use</text>
  <text x="100" y="918" fill="#64748B" font-family="Inter, Segoe UI, Arial, sans-serif" font-size="22">Brand-mark for store and README, SVG sources in brand/, PNG extension icons in icons/.</text>
</svg>
